# xmcd
# 
# Track frame offsets:
#     150
#     17161
#     35478
#     64215
#     98117
#     111474
#     142024
#     161337
#     187746
#     202163
#     239872
#     257040
# 
# Disc length: 3724
# 
# Revision: 11
# Processed by: cddbd v1.5.2PL0 Copyright (c) Steve Scherf et al.
# Submitted via: fre:ac v1.0.31
# 
DISCID=b10e8a0c
DTITLE=Jimi Hendrix - Valleys Of Neptune
DYEAR=2010
DGENRE=Blues
TTITLE0=Stone Free
TTITLE1=Valleys Of Neptune
TTITLE2=Bleeding Heart
TTITLE3=Hear My Train A Comin'
TTITLE4=Mr. Bad Luck
TTITLE5=Sunshine Of Your Love [Instrumental]
TTITLE6=Lover Man
TTITLE7=Ships Passing Through The Night
TTITLE8=Fire
TTITLE9=Red House
TTITLE10=Lullaby For The Summer [Instrumental]
TTITLE11=Crying Blue Rain
EXTD=
EXTT0=
EXTT1=
EXTT2=
EXTT3=
EXTT4=
EXTT5=
EXTT6=
EXTT7=
EXTT8=
EXTT9=
EXTT10=
EXTT11=
PLAYORDER=
